<svg width="22" height="36" viewBox="0 0 22 36" fill="none" xmlns="http://www.w3.org/2000/svg">
<g clip-path="url(#clip0_4130_511)">
<path d="M11.0215 2.93296C14.1472 6.90104 15.8158 11.7943 15.7553 16.8155V18.014L16.7865 18.6415C18.119 19.4482 19.1127 20.6992 19.5866 22.1668C19.1705 21.8604 18.7352 21.5802 18.2833 21.3278L15.5333 19.7837L15.0391 22.9001C14.9963 23.1754 14.9389 23.4484 14.8672 23.7179H7.16151C7.04692 23.3654 6.95383 23.0129 6.86789 22.6462L6.24484 19.826L3.70968 21.2361C3.28615 21.473 2.87723 21.7343 2.48507 22.0187C2.96824 20.5681 3.94123 19.3241 5.24224 18.4935L6.22336 17.866V16.752C6.24106 11.7512 7.92967 6.89517 11.0287 2.93296H11.0215ZM11.0287 -6.10352e-05C10.868 0.000329272 10.7128 0.0579246 10.5918 0.162101L10.5274 0.218505C6.39778 4.76558 4.10466 10.6454 4.08208 16.7449C2.32967 17.8643 1.03251 19.5543 0.417263 21.5196C-0.197979 23.485 -0.0921719 25.6007 0.716194 27.497C1.56776 25.6454 2.99131 24.1057 4.7839 23.0975C4.96368 23.8641 5.2031 24.6161 5.50005 25.3466C5.53771 25.487 5.62118 25.6114 5.73763 25.7006C5.85408 25.7897 5.99706 25.8388 6.14458 25.8401H16.0847C16.2852 25.8401 16.4857 25.6498 16.586 25.3536C16.8758 24.6591 17.0778 23.9322 17.1875 23.1891C18.9836 24.1932 20.4083 25.7341 21.2553 27.5887C22.1124 25.7017 22.2451 23.5726 21.6288 21.5966C21.0124 19.6206 19.6888 17.9318 17.9037 16.8437C17.9745 10.7081 15.6935 4.77173 11.5157 0.218505C11.4535 0.150024 11.3773 0.0951787 11.2922 0.057526C11.2071 0.0198734 11.1149 0.000253714 11.0215 -6.10352e-05L11.0287 -6.10352e-05Z" fill="#4EA8DE"/>
<path d="M11.0216 16.1598C10.4715 16.1597 9.93376 15.9994 9.47611 15.699C9.01846 15.3985 8.6614 14.9714 8.44993 14.4715C8.23847 13.9716 8.18206 13.4212 8.28782 12.8898C8.39358 12.3583 8.65678 11.8696 9.04423 11.4852C9.43169 11.1008 9.92606 10.8379 10.465 10.7297C11.004 10.6215 11.5634 10.6728 12.0728 10.8772C12.5822 11.0815 13.0188 11.4298 13.3275 11.878C13.6361 12.3262 13.8031 12.8544 13.8074 13.3959C13.8159 13.7469 13.7542 14.096 13.6256 14.4235C13.4971 14.7509 13.3043 15.0502 13.0582 15.3042C12.8121 15.5583 12.5176 15.7621 12.1915 15.9041C11.8654 16.046 11.5141 16.1233 11.1576 16.1315C11.1126 16.1387 11.0666 16.1387 11.0216 16.1315V16.1598Z" fill="#4EA8DE"/>
<path d="M14.8959 27.5957C14.7167 27.5901 14.5382 27.6197 14.3708 27.6829C14.2034 27.7461 14.0505 27.8416 13.9211 27.9637C13.7917 28.0859 13.6884 28.2323 13.6172 28.3943C13.546 28.5563 13.5084 28.7306 13.5066 28.9071V33.0669C13.5066 33.4297 13.653 33.7776 13.9135 34.0341C14.1741 34.2906 14.5274 34.4347 14.8959 34.4347C15.2644 34.4347 15.6178 34.2906 15.8783 34.0341C16.1389 33.7776 16.2852 33.4297 16.2852 33.0669V28.9635C16.291 28.7877 16.2611 28.6125 16.1973 28.4482C16.1336 28.2838 16.0372 28.1336 15.9139 28.0063C15.7906 27.879 15.6428 27.7771 15.4791 27.7066C15.3154 27.6361 15.139 27.5984 14.9604 27.5957H14.8959Z" fill="#5E60CE"/>
<path d="M7.16154 27.5957C6.97931 27.5862 6.797 27.6129 6.62546 27.6742C6.45392 27.7355 6.29665 27.8301 6.16302 27.9525C6.02939 28.0748 5.92213 28.2224 5.84761 28.3864C5.77309 28.5504 5.73284 28.7275 5.72925 28.9071V33.0669C5.72925 33.4297 5.87562 33.7776 6.13617 34.0341C6.39672 34.2906 6.7501 34.4347 7.11857 34.4347C7.48704 34.4347 7.84042 34.2906 8.10097 34.0341C8.36152 33.7776 8.50789 33.4297 8.50789 33.0669V28.9635C8.51362 28.7877 8.48373 28.6125 8.41998 28.4481C8.35623 28.2838 8.25989 28.1336 8.13658 28.0063C8.01326 27.879 7.86544 27.7771 7.70173 27.7066C7.53802 27.6361 7.36169 27.5984 7.18302 27.5957H7.16154Z" fill="#5E60CE"/>
<path d="M10.9213 27.5957C10.7426 27.592 10.5649 27.6229 10.3984 27.6868C10.2318 27.7507 10.0797 27.8462 9.95068 27.968C9.82167 28.0898 9.71828 28.2354 9.64644 28.3966C9.5746 28.5577 9.5357 28.7312 9.53198 28.9071V34.6392C9.53198 35.0019 9.67836 35.3498 9.93891 35.6064C10.1995 35.8629 10.5528 36.007 10.9213 36.007C11.2898 36.007 11.6432 35.8629 11.9037 35.6064C12.1643 35.3498 12.3106 35.0019 12.3106 34.6392V28.9988C12.3164 28.8229 12.2865 28.6477 12.2227 28.4834C12.159 28.3191 12.0626 28.1689 11.9393 28.0415C11.816 27.9142 11.6682 27.8124 11.5045 27.7419C11.3408 27.6714 11.1644 27.6337 10.9858 27.631L10.9213 27.5957Z" fill="#5E60CE"/>
</g>
<defs>
<clipPath id="clip0_4130_511">
<rect width="22" height="36" fill="white"/>
</clipPath>
</defs>
</svg>
