<svg width="91" height="31" viewBox="0 0 91 31" fill="none" xmlns="http://www.w3.org/2000/svg">
<path d="M79.2579 30.3977C76.8904 30.3977 74.8639 29.929 73.1783 28.9915C71.4927 28.0445 70.2001 26.7282 69.3005 25.0426C68.4009 23.3475 67.951 21.3826 67.951 19.1477C67.951 16.9129 68.4009 14.9526 69.3005 13.267C70.2001 11.5719 71.4927 10.2557 73.1783 9.31816C74.8639 8.37119 76.8904 7.89771 79.2579 7.89771C81.6253 7.89771 83.6518 8.37119 85.3374 9.31816C87.023 10.2557 88.3156 11.5719 89.2153 13.267C90.1149 14.9526 90.5647 16.9129 90.5647 19.1477C90.5647 21.3826 90.1149 23.3475 89.2153 25.0426C88.3156 26.7282 87.023 28.0445 85.3374 28.9915C83.6518 29.929 81.6253 30.3977 79.2579 30.3977ZM79.3147 24.6022C79.9776 24.6022 80.5505 24.3797 81.0334 23.9346C81.5164 23.4896 81.8904 22.8551 82.1556 22.0312C82.4207 21.2074 82.5533 20.2272 82.5533 19.0909C82.5533 17.9451 82.4207 16.9649 82.1556 16.1505C81.8904 15.3267 81.5164 14.6922 81.0334 14.2471C80.5505 13.8021 79.9776 13.5795 79.3147 13.5795C78.6139 13.5795 78.0126 13.8021 77.5107 14.2471C77.0088 14.6922 76.6253 15.3267 76.3601 16.1505C76.095 16.9649 75.9624 17.9451 75.9624 19.0909C75.9624 20.2272 76.095 21.2074 76.3601 22.0312C76.6253 22.8551 77.0088 23.4896 77.5107 23.9346C78.0126 24.3797 78.6139 24.6022 79.3147 24.6022Z" fill="#5E60CE"/>
<path d="M50.863 30.2841C49.31 30.2841 47.88 29.8769 46.5732 29.0625C45.2759 28.2481 44.2342 27.0123 43.4482 25.3551C42.6717 23.6979 42.2834 21.6098 42.2834 19.0909C42.2834 16.4583 42.6906 14.3181 43.505 12.6704C44.3289 11.0227 45.3895 9.81531 46.6869 9.04826C47.9937 8.28122 49.3668 7.8977 50.8062 7.8977C51.8857 7.8977 52.8327 8.08709 53.6471 8.46588C54.4615 8.83519 55.1433 9.33235 55.6925 9.95735C56.2418 10.5729 56.6584 11.25 56.9425 11.9886H57.0562V0.909058H64.8971V30H57.113V26.4204H56.9425C56.6395 27.1591 56.2039 27.8219 55.6357 28.4091C55.077 28.9867 54.3952 29.446 53.5903 29.7869C52.7948 30.1183 51.8857 30.2841 50.863 30.2841ZM53.7607 24.2613C54.4804 24.2613 55.0959 24.053 55.6073 23.6363C56.1281 23.2102 56.5259 22.6136 56.8005 21.8466C57.0846 21.07 57.2266 20.1515 57.2266 19.0909C57.2266 18.0113 57.0846 17.088 56.8005 16.321C56.5259 15.5445 56.1281 14.9526 55.6073 14.5454C55.0959 14.1288 54.4804 13.9204 53.7607 13.9204C53.041 13.9204 52.4255 14.1288 51.9141 14.5454C51.4122 14.9526 51.024 15.5445 50.7494 16.321C50.4842 17.088 50.3516 18.0113 50.3516 19.0909C50.3516 20.1704 50.4842 21.0985 50.7494 21.875C51.024 22.642 51.4122 23.2339 51.9141 23.6505C52.4255 24.0577 53.041 24.2613 53.7607 24.2613Z" fill="#5E60CE"/>
<path d="M28.4766 30.3977C26.1092 30.3977 24.0827 29.929 22.3971 28.9915C20.7115 28.0445 19.4189 26.7282 18.5192 25.0426C17.6196 23.3475 17.1698 21.3826 17.1698 19.1477C17.1698 16.9129 17.6196 14.9526 18.5192 13.267C19.4189 11.5719 20.7115 10.2557 22.3971 9.31816C24.0827 8.37119 26.1092 7.89771 28.4766 7.89771C30.844 7.89771 32.8706 8.37119 34.5562 9.31816C36.2418 10.2557 37.5344 11.5719 38.434 13.267C39.3336 14.9526 39.7834 16.9129 39.7834 19.1477C39.7834 21.3826 39.3336 23.3475 38.434 25.0426C37.5344 26.7282 36.2418 28.0445 34.5562 28.9915C32.8706 29.929 30.844 30.3977 28.4766 30.3977ZM28.5334 24.6022C29.1963 24.6022 29.7692 24.3797 30.2522 23.9346C30.7351 23.4896 31.1092 22.8551 31.3743 22.0312C31.6395 21.2074 31.7721 20.2272 31.7721 19.0909C31.7721 17.9451 31.6395 16.9649 31.3743 16.1505C31.1092 15.3267 30.7351 14.6922 30.2522 14.2471C29.7692 13.8021 29.1963 13.5795 28.5334 13.5795C27.8327 13.5795 27.2314 13.8021 26.7295 14.2471C26.2276 14.6922 25.844 15.3267 25.5789 16.1505C25.3137 16.9649 25.1812 17.9451 25.1812 19.0909C25.1812 20.2272 25.3137 21.2074 25.5789 22.0312C25.844 22.8551 26.2276 23.4896 26.7295 23.9346C27.2314 24.3797 27.8327 24.6022 28.5334 24.6022Z" fill="#4EA8DE"/>
<path d="M15 8.1818V13.8636H0.625V8.1818H15ZM3.40909 2.95453H11.25V22.9829C11.25 23.286 11.3021 23.5417 11.4062 23.75C11.5104 23.9488 11.6714 24.1004 11.8892 24.2045C12.107 24.2992 12.3864 24.3466 12.7273 24.3466C12.964 24.3466 13.2386 24.3182 13.5511 24.2613C13.8731 24.2045 14.1098 24.1572 14.2614 24.1193L15.3977 29.6307C15.0473 29.7348 14.5455 29.8627 13.892 30.0142C13.2481 30.1657 12.4811 30.2651 11.5909 30.3125C9.79167 30.4072 8.28125 30.2225 7.05966 29.7585C5.83807 29.285 4.91951 28.5417 4.30398 27.5284C3.68845 26.5151 3.39015 25.2462 3.40909 23.7216V2.95453Z" fill="#4EA8DE"/>
</svg>
